<svg width="20" height="20" viewBox="0 0 20 20" fill="none" xmlns="http://www.w3.org/2000/svg">
    <path fillRule="evenodd" clipRule="evenodd" d="M3.04199 9.25C3.04199 5.82157 5.82157 3.04199 9.25 3.04199C12.6784 3.04199 15.458 5.82157 15.458 9.25C15.458 12.6784 12.6784 15.458 9.25 15.458C5.82157 15.458 3.04199 12.6784 3.04199 9.25ZM9.25 1.54199C4.99313 1.54199 1.54199 4.99313 1.54199 9.25C1.54199 13.5069 4.99313 16.958 9.25 16.958C11.0848 16.958 12.7711 16.3166 14.0996 15.2455L17.3223 18.4682C17.6152 18.7611 18.0901 18.7611 18.383 18.4682C18.6759 18.1753 18.6759 17.7004 18.383 17.4075L15.1898 14.2143C16.4203 12.8104 17.166 10.9869 17.166 9.00001C17.166 4.74316 13.7149 1.29202 9.45801 1.29202H9.25V1.54199Z" fill="currentColor"/>
</svg>