<svg xmlns="http://www.w3.org/2000/svg" xmlns:xlink="http://www.w3.org/1999/xlink" width="154" zoomAndPan="magnify" viewBox="0 0 115.5 36.000001" height="48" preserveAspectRatio="xMidYMid meet" version="1.0"><defs><clipPath id="85f2850f0b"><path d="M 15 28 L 23 28 L 23 35.027344 L 15 35.027344 Z M 15 28 " clip-rule="nonzero"/></clipPath><clipPath id="af61a407d4"><path d="M 1.316406 14 L 8 14 L 8 21 L 1.316406 21 Z M 1.316406 14 " clip-rule="nonzero"/></clipPath><clipPath id="6e94ee969f"><path d="M 29 14 L 36.34375 14 L 36.34375 21 L 29 21 Z M 29 14 " clip-rule="nonzero"/></clipPath><clipPath id="78cd5267cf"><path d="M 1.316406 0 L 36.34375 0 L 36.34375 35.027344 L 1.316406 35.027344 Z M 1.316406 0 " clip-rule="nonzero"/></clipPath></defs><path fill="#161950" d="M 22.164062 3.332031 C 22.164062 3.773438 22.078125 4.199219 21.910156 4.609375 C 21.742188 5.015625 21.5 5.378906 21.1875 5.691406 C 20.875 6.003906 20.515625 6.242188 20.105469 6.414062 C 19.699219 6.582031 19.273438 6.664062 18.832031 6.664062 C 18.390625 6.664062 17.964844 6.582031 17.554688 6.414062 C 17.148438 6.242188 16.785156 6.003906 16.472656 5.691406 C 16.160156 5.378906 15.921875 5.015625 15.75 4.609375 C 15.582031 4.199219 15.5 3.773438 15.5 3.332031 C 15.5 2.890625 15.582031 2.464844 15.75 2.058594 C 15.921875 1.648438 16.160156 1.289062 16.472656 0.976562 C 16.785156 0.664062 17.148438 0.421875 17.554688 0.253906 C 17.964844 0.0859375 18.390625 0 18.832031 0 C 19.273438 0 19.699219 0.0859375 20.105469 0.253906 C 20.515625 0.421875 20.875 0.664062 21.1875 0.976562 C 21.5 1.289062 21.742188 1.648438 21.910156 2.058594 C 22.078125 2.464844 22.164062 2.890625 22.164062 3.332031 Z M 22.164062 3.332031 " fill-opacity="1" fill-rule="nonzero"/><g clip-path="url(#85f2850f0b)"><path fill="#161950" d="M 22.164062 31.695312 C 22.164062 32.136719 22.078125 32.5625 21.910156 32.96875 C 21.742188 33.378906 21.5 33.738281 21.1875 34.050781 C 20.875 34.363281 20.515625 34.605469 20.105469 34.773438 C 19.699219 34.941406 19.273438 35.027344 18.832031 35.027344 C 18.390625 35.027344 17.964844 34.941406 17.554688 34.773438 C 17.148438 34.605469 16.785156 34.363281 16.472656 34.050781 C 16.160156 33.738281 15.921875 33.378906 15.75 32.96875 C 15.582031 32.5625 15.5 32.136719 15.5 31.695312 C 15.5 31.253906 15.582031 30.828125 15.75 30.417969 C 15.921875 30.011719 16.160156 29.648438 16.472656 29.335938 C 16.785156 29.023438 17.148438 28.785156 17.554688 28.613281 C 17.964844 28.445312 18.390625 28.359375 18.832031 28.359375 C 19.273438 28.359375 19.699219 28.445312 20.105469 28.613281 C 20.515625 28.785156 20.875 29.023438 21.1875 29.335938 C 21.5 29.648438 21.742188 30.011719 21.910156 30.417969 C 22.078125 30.828125 22.164062 31.253906 22.164062 31.695312 Z M 22.164062 31.695312 " fill-opacity="1" fill-rule="nonzero"/></g><g clip-path="url(#af61a407d4)"><path fill="#161950" d="M 7.984375 17.511719 C 7.984375 17.957031 7.898438 18.378906 7.730469 18.789062 C 7.5625 19.199219 7.320312 19.558594 7.007812 19.871094 C 6.695312 20.183594 6.335938 20.421875 5.925781 20.59375 C 5.519531 20.761719 5.09375 20.847656 4.652344 20.847656 C 4.207031 20.847656 3.785156 20.761719 3.375 20.59375 C 2.964844 20.421875 2.605469 20.183594 2.292969 19.871094 C 1.980469 19.558594 1.742188 19.199219 1.570312 18.789062 C 1.402344 18.378906 1.316406 17.957031 1.316406 17.511719 C 1.316406 17.070312 1.402344 16.644531 1.570312 16.238281 C 1.742188 15.828125 1.980469 15.46875 2.292969 15.15625 C 2.605469 14.84375 2.964844 14.601562 3.375 14.433594 C 3.785156 14.265625 4.207031 14.179688 4.652344 14.179688 C 5.09375 14.179688 5.519531 14.265625 5.925781 14.433594 C 6.335938 14.601562 6.695312 14.84375 7.007812 15.15625 C 7.320312 15.46875 7.5625 15.828125 7.730469 16.238281 C 7.898438 16.644531 7.984375 17.070312 7.984375 17.511719 Z M 7.984375 17.511719 " fill-opacity="1" fill-rule="nonzero"/></g><g clip-path="url(#6e94ee969f)"><path fill="#161950" d="M 36.34375 17.511719 C 36.34375 17.957031 36.261719 18.378906 36.089844 18.789062 C 35.921875 19.199219 35.679688 19.558594 35.367188 19.871094 C 35.054688 20.183594 34.695312 20.421875 34.285156 20.59375 C 33.878906 20.761719 33.453125 20.847656 33.011719 20.847656 C 32.570312 20.847656 32.144531 20.761719 31.734375 20.59375 C 31.328125 20.421875 30.96875 20.183594 30.65625 19.871094 C 30.34375 19.558594 30.101562 19.199219 29.933594 18.789062 C 29.761719 18.378906 29.679688 17.957031 29.679688 17.511719 C 29.679688 17.070312 29.761719 16.644531 29.933594 16.238281 C 30.101562 15.828125 30.34375 15.46875 30.65625 15.15625 C 30.96875 14.84375 31.328125 14.601562 31.734375 14.433594 C 32.144531 14.265625 32.570312 14.179688 33.011719 14.179688 C 33.453125 14.179688 33.878906 14.265625 34.285156 14.433594 C 34.695312 14.601562 35.054688 14.84375 35.367188 15.15625 C 35.679688 15.46875 35.921875 15.828125 36.089844 16.238281 C 36.261719 16.644531 36.34375 17.070312 36.34375 17.511719 Z M 36.34375 17.511719 " fill-opacity="1" fill-rule="nonzero"/></g><g clip-path="url(#78cd5267cf)"><path fill="#465fff" d="M 28.492188 26.585938 L 23.9375 22.03125 C 22.75 20.84375 22.152344 19.214844 22.160156 17.535156 C 22.160156 17.519531 22.160156 17.507812 22.160156 17.492188 C 22.152344 15.8125 22.75 14.183594 23.9375 12.996094 L 28.503906 8.429688 C 29.691406 7.242188 31.320312 6.65625 33 6.664062 C 33.875 6.667969 34.753906 6.328125 35.414062 5.644531 C 36.617188 4.394531 36.644531 2.375 35.480469 1.09375 C 34.191406 -0.324219 31.996094 -0.363281 30.65625 0.976562 C 29.996094 1.636719 29.671875 2.503906 29.679688 3.367188 C 29.699219 5.046875 29.089844 6.667969 27.902344 7.851562 L 23.351562 12.40625 C 22.160156 13.59375 20.535156 14.195312 18.851562 14.183594 C 18.839844 14.183594 18.824219 14.183594 18.808594 14.183594 C 17.128906 14.195312 15.5 13.59375 14.3125 12.40625 L 9.75 7.84375 C 8.5625 6.652344 7.972656 5.027344 7.980469 3.34375 C 7.984375 2.46875 7.644531 1.589844 6.960938 0.929688 C 5.710938 -0.269531 3.691406 -0.300781 2.410156 0.863281 C 0.992188 2.152344 0.953125 4.351562 2.292969 5.691406 C 2.953125 6.351562 3.820312 6.675781 4.6875 6.664062 C 6.363281 6.644531 7.984375 7.257812 9.171875 8.441406 L 13.722656 12.996094 C 14.910156 14.183594 15.511719 15.8125 15.5 17.492188 C 15.5 17.507812 15.5 17.519531 15.5 17.535156 C 15.511719 19.214844 14.910156 20.84375 13.722656 22.03125 L 9.160156 26.59375 C 7.972656 27.785156 6.34375 28.371094 4.664062 28.363281 C 3.785156 28.359375 2.90625 28.699219 2.25 29.382812 C 1.046875 30.632812 1.015625 32.652344 2.183594 33.933594 C 3.472656 35.351562 5.667969 35.390625 7.007812 34.050781 C 7.667969 33.390625 7.992188 32.523438 7.980469 31.660156 C 7.960938 29.980469 8.574219 28.359375 9.757812 27.175781 L 14.3125 22.621094 C 15.5 21.433594 17.128906 20.832031 18.808594 20.84375 C 18.824219 20.84375 18.839844 20.84375 18.851562 20.84375 C 20.535156 20.832031 22.160156 21.433594 23.351562 22.621094 L 27.914062 27.183594 C 29.101562 28.371094 29.6875 30 29.679688 31.683594 C 29.675781 32.558594 30.015625 33.4375 30.699219 34.097656 C 31.949219 35.296875 33.96875 35.328125 35.25 34.164062 C 36.667969 32.871094 36.707031 30.675781 35.367188 29.335938 C 34.707031 28.675781 33.839844 28.351562 32.976562 28.363281 C 31.300781 28.382812 29.675781 27.769531 28.492188 26.585938 Z M 28.492188 26.585938 " fill-opacity="1" fill-rule="nonzero"/></g></svg>