<svg xmlns="http://www.w3.org/2000/svg" xmlns:xlink="http://www.w3.org/1999/xlink" width="154" zoomAndPan="magnify" viewBox="0 0 115.5 30.000001" height="40" preserveAspectRatio="xMidYMid meet" version="1.0"><defs><g/><clipPath id="0918f539a1"><path d="M 21 2.902344 L 27 2.902344 L 27 8 L 21 8 Z M 21 2.902344 " clip-rule="nonzero"/></clipPath><clipPath id="e9ae7e557b"><path d="M 21 21 L 27 21 L 27 26.128906 L 21 26.128906 Z M 21 21 " clip-rule="nonzero"/></clipPath><clipPath id="274866a60a"><path d="M 12.324219 12 L 17 12 L 17 17 L 12.324219 17 Z M 12.324219 12 " clip-rule="nonzero"/></clipPath><clipPath id="71b51042f7"><path d="M 31 12 L 35.546875 12 L 35.546875 17 L 31 17 Z M 31 12 " clip-rule="nonzero"/></clipPath><clipPath id="7501b9222b"><path d="M 12.324219 2.902344 L 35.546875 2.902344 L 35.546875 26.128906 L 12.324219 26.128906 Z M 12.324219 2.902344 " clip-rule="nonzero"/></clipPath></defs><g clip-path="url(#0918f539a1)"><path fill="#ffffff" d="M 26.144531 5.113281 C 26.144531 5.40625 26.089844 5.6875 25.976562 5.960938 C 25.867188 6.230469 25.707031 6.46875 25.5 6.675781 C 25.292969 6.882812 25.050781 7.042969 24.78125 7.15625 C 24.511719 7.265625 24.230469 7.324219 23.9375 7.324219 C 23.644531 7.324219 23.359375 7.265625 23.089844 7.15625 C 22.820312 7.042969 22.582031 6.882812 22.371094 6.675781 C 22.164062 6.46875 22.007812 6.230469 21.894531 5.960938 C 21.78125 5.6875 21.726562 5.40625 21.726562 5.113281 C 21.726562 4.820312 21.78125 4.539062 21.894531 4.265625 C 22.007812 3.996094 22.164062 3.757812 22.371094 3.550781 C 22.582031 3.34375 22.820312 3.183594 23.089844 3.070312 C 23.359375 2.960938 23.644531 2.902344 23.9375 2.902344 C 24.230469 2.902344 24.511719 2.960938 24.78125 3.070312 C 25.050781 3.183594 25.292969 3.34375 25.5 3.550781 C 25.707031 3.757812 25.867188 3.996094 25.976562 4.265625 C 26.089844 4.539062 26.144531 4.820312 26.144531 5.113281 Z M 26.144531 5.113281 " fill-opacity="1" fill-rule="nonzero"/></g><g clip-path="url(#e9ae7e557b)"><path fill="#ffffff" d="M 26.144531 23.917969 C 26.144531 24.210938 26.089844 24.492188 25.976562 24.765625 C 25.867188 25.035156 25.707031 25.273438 25.5 25.480469 C 25.292969 25.6875 25.050781 25.847656 24.78125 25.960938 C 24.511719 26.074219 24.230469 26.128906 23.9375 26.128906 C 23.644531 26.128906 23.359375 26.074219 23.089844 25.960938 C 22.820312 25.847656 22.582031 25.6875 22.371094 25.480469 C 22.164062 25.273438 22.007812 25.035156 21.894531 24.765625 C 21.78125 24.492188 21.726562 24.210938 21.726562 23.917969 C 21.726562 23.625 21.78125 23.34375 21.894531 23.074219 C 22.007812 22.800781 22.164062 22.5625 22.371094 22.355469 C 22.582031 22.148438 22.820312 21.988281 23.089844 21.878906 C 23.359375 21.765625 23.644531 21.707031 23.9375 21.707031 C 24.230469 21.707031 24.511719 21.765625 24.78125 21.878906 C 25.050781 21.988281 25.292969 22.148438 25.5 22.355469 C 25.707031 22.5625 25.867188 22.800781 25.976562 23.074219 C 26.089844 23.34375 26.144531 23.625 26.144531 23.917969 Z M 26.144531 23.917969 " fill-opacity="1" fill-rule="nonzero"/></g><g clip-path="url(#274866a60a)"><path fill="#ffffff" d="M 16.742188 14.515625 C 16.742188 14.808594 16.6875 15.089844 16.574219 15.363281 C 16.460938 15.632812 16.304688 15.871094 16.09375 16.078125 C 15.886719 16.285156 15.648438 16.445312 15.378906 16.558594 C 15.109375 16.671875 14.824219 16.726562 14.53125 16.726562 C 14.238281 16.726562 13.957031 16.671875 13.6875 16.558594 C 13.417969 16.445312 13.175781 16.285156 12.96875 16.078125 C 12.761719 15.871094 12.601562 15.632812 12.492188 15.363281 C 12.378906 15.089844 12.324219 14.808594 12.324219 14.515625 C 12.324219 14.222656 12.378906 13.941406 12.492188 13.671875 C 12.601562 13.398438 12.761719 13.160156 12.96875 12.953125 C 13.175781 12.746094 13.417969 12.585938 13.6875 12.472656 C 13.957031 12.363281 14.238281 12.304688 14.53125 12.304688 C 14.824219 12.304688 15.109375 12.363281 15.378906 12.472656 C 15.648438 12.585938 15.886719 12.746094 16.09375 12.953125 C 16.304688 13.160156 16.460938 13.398438 16.574219 13.671875 C 16.6875 13.941406 16.742188 14.222656 16.742188 14.515625 Z M 16.742188 14.515625 " fill-opacity="1" fill-rule="nonzero"/></g><g clip-path="url(#71b51042f7)"><path fill="#ffffff" d="M 35.546875 14.515625 C 35.546875 14.808594 35.492188 15.089844 35.378906 15.363281 C 35.269531 15.632812 35.109375 15.871094 34.902344 16.078125 C 34.695312 16.285156 34.457031 16.445312 34.183594 16.558594 C 33.914062 16.671875 33.632812 16.726562 33.339844 16.726562 C 33.046875 16.726562 32.761719 16.671875 32.492188 16.558594 C 32.222656 16.445312 31.984375 16.285156 31.777344 16.078125 C 31.570312 15.871094 31.410156 15.632812 31.296875 15.363281 C 31.183594 15.089844 31.128906 14.808594 31.128906 14.515625 C 31.128906 14.222656 31.183594 13.941406 31.296875 13.671875 C 31.410156 13.398438 31.570312 13.160156 31.777344 12.953125 C 31.984375 12.746094 32.222656 12.585938 32.492188 12.472656 C 32.761719 12.363281 33.046875 12.304688 33.339844 12.304688 C 33.632812 12.304688 33.914062 12.363281 34.183594 12.472656 C 34.457031 12.585938 34.695312 12.746094 34.902344 12.953125 C 35.109375 13.160156 35.269531 13.398438 35.378906 13.671875 C 35.492188 13.941406 35.546875 14.222656 35.546875 14.515625 Z M 35.546875 14.515625 " fill-opacity="1" fill-rule="nonzero"/></g><g clip-path="url(#7501b9222b)"><path fill="#ffffff" d="M 30.339844 20.53125 L 27.324219 17.511719 C 26.535156 16.722656 26.136719 15.644531 26.144531 14.53125 C 26.144531 14.519531 26.144531 14.511719 26.144531 14.5 C 26.136719 13.386719 26.535156 12.308594 27.324219 11.519531 L 30.347656 8.492188 C 31.136719 7.707031 32.214844 7.316406 33.332031 7.324219 C 33.914062 7.324219 34.496094 7.097656 34.929688 6.644531 C 35.726562 5.816406 35.75 4.476562 34.976562 3.628906 C 34.121094 2.6875 32.664062 2.664062 31.777344 3.550781 C 31.339844 3.988281 31.121094 4.5625 31.128906 5.136719 C 31.140625 6.25 30.738281 7.324219 29.949219 8.109375 L 26.933594 11.128906 C 26.144531 11.917969 25.066406 12.316406 23.949219 12.308594 C 23.941406 12.308594 23.929688 12.308594 23.921875 12.308594 C 22.808594 12.316406 21.726562 11.917969 20.941406 11.128906 L 17.914062 8.101562 C 17.125 7.316406 16.738281 6.234375 16.742188 5.121094 C 16.746094 4.539062 16.519531 3.957031 16.066406 3.519531 C 15.238281 2.722656 13.898438 2.703125 13.046875 3.476562 C 12.109375 4.332031 12.082031 5.789062 12.96875 6.675781 C 13.40625 7.113281 13.984375 7.328125 14.554688 7.324219 C 15.667969 7.308594 16.742188 7.714844 17.53125 8.5 L 20.550781 11.519531 C 21.335938 12.308594 21.734375 13.386719 21.726562 14.5 C 21.726562 14.511719 21.726562 14.519531 21.726562 14.53125 C 21.734375 15.644531 21.335938 16.722656 20.550781 17.511719 L 17.523438 20.539062 C 16.734375 21.328125 15.65625 21.714844 14.539062 21.710938 C 13.960938 21.707031 13.378906 21.933594 12.941406 22.386719 C 12.144531 23.214844 12.121094 24.554688 12.894531 25.402344 C 13.75 26.34375 15.207031 26.371094 16.097656 25.480469 C 16.535156 25.042969 16.75 24.46875 16.742188 23.894531 C 16.730469 22.785156 17.132812 21.707031 17.921875 20.921875 L 20.941406 17.902344 C 21.726562 17.113281 22.804688 16.71875 23.921875 16.722656 C 23.929688 16.722656 23.941406 16.722656 23.949219 16.722656 C 25.066406 16.71875 26.144531 17.113281 26.933594 17.902344 L 29.957031 20.929688 C 30.746094 21.71875 31.132812 22.796875 31.128906 23.910156 C 31.125 24.492188 31.351562 25.074219 31.804688 25.511719 C 32.632812 26.308594 33.972656 26.328125 34.824219 25.554688 C 35.761719 24.699219 35.789062 23.246094 34.902344 22.355469 C 34.464844 21.917969 33.886719 21.703125 33.316406 21.710938 C 32.203125 21.722656 31.128906 21.316406 30.339844 20.53125 Z M 30.339844 20.53125 " fill-opacity="1" fill-rule="nonzero"/></g><g fill="#ffffff" fill-opacity="1"><g transform="translate(43.052827, 18.145163)"><g><path d="M 10.046875 0.84375 C 9.765625 1.175781 9.4375 1.425781 9.0625 1.59375 C 8.6875 1.757812 8.28125 1.84375 7.84375 1.84375 C 7.257812 1.84375 6.726562 1.710938 6.25 1.453125 C 5.769531 1.191406 5.21875 0.738281 4.59375 0.09375 C 3.8125 0.03125 3.109375 -0.191406 2.484375 -0.578125 C 1.867188 -0.972656 1.390625 -1.484375 1.046875 -2.109375 C 0.703125 -2.742188 0.53125 -3.445312 0.53125 -4.21875 C 0.53125 -5.039062 0.726562 -5.78125 1.125 -6.4375 C 1.519531 -7.101562 2.0625 -7.625 2.75 -8 C 3.4375 -8.375 4.210938 -8.5625 5.078125 -8.5625 C 5.941406 -8.5625 6.71875 -8.375 7.40625 -8 C 8.09375 -7.625 8.632812 -7.109375 9.03125 -6.453125 C 9.425781 -5.796875 9.625 -5.050781 9.625 -4.21875 C 9.625 -3.550781 9.488281 -2.929688 9.21875 -2.359375 C 8.957031 -1.796875 8.585938 -1.316406 8.109375 -0.921875 C 7.640625 -0.523438 7.09375 -0.238281 6.46875 -0.0625 C 6.695312 0.1875 6.921875 0.367188 7.140625 0.484375 C 7.367188 0.597656 7.613281 0.65625 7.875 0.65625 C 8.425781 0.65625 8.910156 0.425781 9.328125 -0.03125 Z M 2.109375 -4.21875 C 2.109375 -3.65625 2.238281 -3.144531 2.5 -2.6875 C 2.757812 -2.238281 3.113281 -1.882812 3.5625 -1.625 C 4.007812 -1.375 4.515625 -1.25 5.078125 -1.25 C 5.640625 -1.25 6.144531 -1.375 6.59375 -1.625 C 7.050781 -1.882812 7.40625 -2.238281 7.65625 -2.6875 C 7.914062 -3.144531 8.046875 -3.65625 8.046875 -4.21875 C 8.046875 -4.78125 7.914062 -5.285156 7.65625 -5.734375 C 7.40625 -6.191406 7.050781 -6.546875 6.59375 -6.796875 C 6.144531 -7.054688 5.640625 -7.1875 5.078125 -7.1875 C 4.515625 -7.1875 4.007812 -7.054688 3.5625 -6.796875 C 3.113281 -6.546875 2.757812 -6.191406 2.5 -5.734375 C 2.238281 -5.285156 2.109375 -4.78125 2.109375 -4.21875 Z M 2.109375 -4.21875 "/></g></g></g><g fill="#ffffff" fill-opacity="1"><g transform="translate(55.616025, 18.145163)"><g><path d="M 6.65625 0 L 4.9375 -2.46875 C 4.863281 -2.457031 4.753906 -2.453125 4.609375 -2.453125 L 2.703125 -2.453125 L 2.703125 0 L 1.140625 0 L 1.140625 -8.4375 L 4.609375 -8.4375 C 5.335938 -8.4375 5.972656 -8.316406 6.515625 -8.078125 C 7.054688 -7.835938 7.472656 -7.492188 7.765625 -7.046875 C 8.054688 -6.597656 8.203125 -6.0625 8.203125 -5.4375 C 8.203125 -4.800781 8.046875 -4.253906 7.734375 -3.796875 C 7.429688 -3.335938 6.988281 -3 6.40625 -2.78125 L 8.34375 0 Z M 6.625 -5.4375 C 6.625 -5.976562 6.445312 -6.390625 6.09375 -6.671875 C 5.738281 -6.960938 5.21875 -7.109375 4.53125 -7.109375 L 2.703125 -7.109375 L 2.703125 -3.75 L 4.53125 -3.75 C 5.21875 -3.75 5.738281 -3.894531 6.09375 -4.1875 C 6.445312 -4.476562 6.625 -4.894531 6.625 -5.4375 Z M 6.625 -5.4375 "/></g></g></g><g fill="#ffffff" fill-opacity="1"><g transform="translate(66.841096, 18.145163)"><g><path d="M 8.640625 -8.4375 L 8.640625 0 L 7.0625 0 L 7.0625 -3.625 L 2.703125 -3.625 L 2.703125 0 L 1.140625 0 L 1.140625 -8.4375 L 2.703125 -8.4375 L 2.703125 -4.953125 L 7.0625 -4.953125 L 7.0625 -8.4375 Z M 8.640625 -8.4375 "/></g></g></g><g fill="#ffffff" fill-opacity="1"><g transform="translate(79.018532, 18.145163)"><g><path d="M 4.765625 0.125 C 3.597656 0.125 2.6875 -0.203125 2.03125 -0.859375 C 1.382812 -1.515625 1.0625 -2.453125 1.0625 -3.671875 L 1.0625 -8.4375 L 2.625 -8.4375 L 2.625 -3.734375 C 2.625 -2.078125 3.34375 -1.25 4.78125 -1.25 C 6.195312 -1.25 6.90625 -2.078125 6.90625 -3.734375 L 6.90625 -8.4375 L 8.453125 -8.4375 L 8.453125 -3.671875 C 8.453125 -2.453125 8.128906 -1.515625 7.484375 -0.859375 C 6.835938 -0.203125 5.929688 0.125 4.765625 0.125 Z M 4.765625 0.125 "/></g></g></g><g fill="#ffffff" fill-opacity="1"><g transform="translate(90.942807, 18.145163)"><g><path d="M 7.109375 -4.390625 C 7.578125 -4.234375 7.945312 -3.976562 8.21875 -3.625 C 8.5 -3.269531 8.640625 -2.828125 8.640625 -2.296875 C 8.640625 -1.554688 8.359375 -0.988281 7.796875 -0.59375 C 7.234375 -0.195312 6.410156 0 5.328125 0 L 1.140625 0 L 1.140625 -8.4375 L 5.09375 -8.4375 C 6.09375 -8.4375 6.859375 -8.242188 7.390625 -7.859375 C 7.929688 -7.472656 8.203125 -6.9375 8.203125 -6.25 C 8.203125 -5.832031 8.101562 -5.460938 7.90625 -5.140625 C 7.71875 -4.816406 7.453125 -4.566406 7.109375 -4.390625 Z M 2.703125 -7.21875 L 2.703125 -4.890625 L 4.921875 -4.890625 C 5.460938 -4.890625 5.878906 -4.984375 6.171875 -5.171875 C 6.472656 -5.367188 6.625 -5.660156 6.625 -6.046875 C 6.625 -6.429688 6.472656 -6.722656 6.171875 -6.921875 C 5.878906 -7.117188 5.460938 -7.21875 4.921875 -7.21875 Z M 5.234375 -1.234375 C 6.453125 -1.234375 7.0625 -1.640625 7.0625 -2.453125 C 7.0625 -3.265625 6.453125 -3.671875 5.234375 -3.671875 L 2.703125 -3.671875 L 2.703125 -1.234375 Z M 5.234375 -1.234375 "/></g></g></g></svg>